<svg width="96" height="96" viewBox="0 0 96 96" fill="none" xmlns="http://www.w3.org/2000/svg">
<g filter="url(#filter0_d_2_249)">
<path fill-rule="evenodd" clip-rule="evenodd" d="M48 72C65.6731 72 80 57.6731 80 40C80 22.3269 65.6731 8 48 8C30.3269 8 16 22.3269 16 40C16 57.6731 30.3269 72 48 72Z" fill="white"/>
</g>
<path fill-rule="evenodd" clip-rule="evenodd" d="M56.6667 52.9769C55.1982 55.3064 51.8018 55.3064 50.3333 52.9769L42.6186 40.7399C41.0471 38.2471 42.8385 35 45.7854 35H61.2146C64.1615 35 65.9529 38.2471 64.3814 40.7399L56.6667 52.9769Z" fill="url(#paint0_linear_2_249)"/>
<path fill-rule="evenodd" clip-rule="evenodd" d="M39.3333 30.0231C40.8018 27.6936 44.1982 27.6936 45.6667 30.0231L53.3814 42.2601C54.9529 44.7529 53.1615 48 50.2146 48H34.7854C31.8385 48 30.0471 44.7529 31.6186 42.2601L39.3333 30.0231Z" fill="url(#paint1_linear_2_249)"/>
<defs>
<filter id="filter0_d_2_249" x="0" y="0" width="96" height="96" filterUnits="userSpaceOnUse" color-interpolation-filters="sRGB">
<feFlood flood-opacity="0" result="BackgroundImageFix"/>
<feColorMatrix in="SourceAlpha" type="matrix" values="0 0 0 0 0 0 0 0 0 0 0 0 0 0 0 0 0 0 127 0" result="hardAlpha"/>
<feOffset dy="8"/>
<feGaussianBlur stdDeviation="8"/>
<feColorMatrix type="matrix" values="0 0 0 0 0 0 0 0 0 0 0 0 0 0 0 0 0 0 0.0535402 0"/>
<feBlend mode="normal" in2="BackgroundImageFix" result="effect1_dropShadow_2_249"/>
<feBlend mode="normal" in="SourceGraphic" in2="effect1_dropShadow_2_249" result="shape"/>
</filter>
<linearGradient id="paint0_linear_2_249" x1="52.9912" y1="30.0449" x2="42.3544" y2="48.7008" gradientUnits="userSpaceOnUse">
<stop stop-color="#FFD7A9"/>
<stop offset="1" stop-color="#FFAE70"/>
</linearGradient>
<linearGradient id="paint1_linear_2_249" x1="44.3521" y1="53.4372" x2="59.4268" y2="33.8284" gradientUnits="userSpaceOnUse">
<stop stop-color="#CD10FF"/>
<stop offset="1" stop-color="#9F06FF"/>
</linearGradient>
</defs>
</svg>
