<svg width="355" height="355" viewBox="0 0 355 355" fill="none" xmlns="http://www.w3.org/2000/svg">
<path fill-rule="evenodd" clip-rule="evenodd" d="M177.5 355C275.531 355 355 275.531 355 177.5C355 79.4695 275.531 0 177.5 0C79.4695 0 0 79.4695 0 177.5C0 275.531 79.4695 355 177.5 355Z" fill="url(#paint0_linear_1_170)"/>
<path fill-rule="evenodd" clip-rule="evenodd" d="M61.5 123C95.4655 123 123 95.4655 123 61.5C123 27.5345 95.4655 0 61.5 0C27.5345 0 0 27.5345 0 61.5C0 95.4655 27.5345 123 61.5 123Z" fill="url(#paint1_linear_1_170)"/>
<defs>
<linearGradient id="paint0_linear_1_170" x1="200.172" y1="438.922" x2="440.821" y2="190.657" gradientUnits="userSpaceOnUse">
<stop stop-color="#CD10FF"/>
<stop offset="1" stop-color="#9F06FF"/>
</linearGradient>
<linearGradient id="paint1_linear_1_170" x1="63.658" y1="149.499" x2="126.315" y2="62.3416" gradientUnits="userSpaceOnUse">
<stop stop-color="#FFD7A9"/>
<stop offset="1" stop-color="#FFAE70"/>
</linearGradient>
</defs>
</svg>
